<svg width="8.000000" height="6.000000" viewBox="0 0 8 6" fill="none" xmlns="http://www.w3.org/2000/svg" xmlns:xlink="http://www.w3.org/1999/xlink">
	<desc>
			Created with Pixso.
	</desc>
	<defs/>
	<path id="Vector" d="M7.74 0.2C7.89 0.34 7.97 0.52 7.98 0.72C7.98 0.92 7.91 1.12 7.77 1.26L3.52 5.76C3.45 5.83 3.37 5.89 3.28 5.93C3.19 5.97 3.09 5.99 2.99 5.99C2.89 6 2.79 5.98 2.69 5.94C2.6 5.9 2.52 5.85 2.45 5.77L0.2 3.52C0.06 3.38 -0.01 3.19 0 3C0 2.81 0.08 2.62 0.21 2.48C0.35 2.35 0.54 2.27 0.73 2.26C0.93 2.26 1.11 2.33 1.26 2.46L2.96 4.17L6.68 0.23C6.82 0.09 7.01 0 7.21 0C7.4 -0.01 7.6 0.06 7.74 0.2Z" fill="#000000" fill-opacity="1.000000" fill-rule="nonzero"/>
</svg>
