<svg width="13.000000" height="13.000000" viewBox="0 0 13 13" fill="none" xmlns="http://www.w3.org/2000/svg" xmlns:xlink="http://www.w3.org/1999/xlink">
	<desc>
			Created with Pixso.
	</desc>
	<defs/>
	<path id="Vector" d="M9.53 8.38L8.93 8.38L8.71 8.17C9.19 7.62 9.54 6.97 9.73 6.26C9.93 5.56 9.96 4.82 9.84 4.1C9.48 1.99 7.71 0.29 5.58 0.03C4.83 -0.06 4.06 0.02 3.35 0.26C2.63 0.51 1.98 0.91 1.45 1.45C0.91 1.98 0.51 2.63 0.26 3.35C0.02 4.06 -0.06 4.82 0.03 5.57C0.29 7.71 1.99 9.48 4.11 9.83C4.83 9.96 5.56 9.92 6.27 9.73C6.97 9.53 7.62 9.18 8.18 8.71L8.38 8.92L8.38 9.52L11.62 12.76C11.94 13.07 12.45 13.07 12.76 12.76C13.07 12.45 13.07 11.94 12.76 11.63L9.53 8.38ZM4.95 8.38C3.05 8.38 1.52 6.85 1.52 4.95C1.52 3.05 3.05 1.52 4.95 1.52C6.85 1.52 8.38 3.05 8.38 4.95C8.38 6.85 6.85 8.38 4.95 8.38Z" fill="#000000" fill-opacity="1.000000" fill-rule="nonzero"/>
</svg>
