<svg width="16" height="16" viewBox="0 0 16 17" fill="none" xmlns="http://www.w3.org/2000/svg">
<path d="M1.99454 14.5C1.62938 14.5 1.33334 14.2034 1.33334 13.8377V3.16227C1.33334 2.79651 1.63688 2.5 1.99454 2.5H14.0055C14.3707 2.5 14.6667 2.79663 14.6667 3.16227V13.8377C14.6667 14.2035 14.3631 14.5 14.0055 14.5H1.99454ZM13.3333 10.5V3.83333H2.66668V13.1667L9.33334 6.5L13.3333 10.5ZM13.3333 12.3856L9.33334 8.3856L4.5523 13.1667H13.3333V12.3856ZM5.33334 7.83333C4.59696 7.83333 4.00001 7.2364 4.00001 6.5C4.00001 5.76362 4.59696 5.16667 5.33334 5.16667C6.06972 5.16667 6.66668 5.76362 6.66668 6.5C6.66668 7.2364 6.06972 7.83333 5.33334 7.83333Z" fill="black"/>
</svg>
